<svg width="9.000000" height="12.011719" viewBox="0 0 9 12.0117" fill="none" xmlns="http://www.w3.org/2000/svg" xmlns:xlink="http://www.w3.org/1999/xlink">
	<desc>
			Created with Pixso.
	</desc>
	<defs/>
	<g style="mix-blend-mode:normal">
		<path id="" d="M0.63 0Q0.48 -0.02 0.32 0.05Q0.18 0.13 0.1 0.25Q0.01 0.38 0 0.56L0 11.44Q0.01 11.62 0.1 11.75Q0.18 11.88 0.32 11.95Q0.48 12.02 0.63 12Q0.79 11.98 0.93 11.86L1.87 11.06L2.81 11.86Q3 12 3.18 12Q3.37 12 3.56 11.86L4.5 11.06L5.43 11.86Q5.62 12 5.81 12Q6 12 6.18 11.86L7.12 11.06L8.06 11.86Q8.2 11.98 8.36 12Q8.51 12.02 8.67 11.95Q8.81 11.88 8.89 11.75Q8.98 11.62 9 11.44L9 0.56Q8.98 0.38 8.89 0.25Q8.81 0.13 8.67 0.05Q8.51 -0.01 8.36 0.01Q8.2 0.03 8.06 0.14L7.12 0.94L6.18 0.14Q6 0 5.81 0Q5.62 0 5.43 0.14L4.5 0.94L3.56 0.14Q3.37 0 3.18 0Q3 0 2.81 0.14L1.87 0.94L0.93 0.14Q0.79 0.02 0.63 0ZM1.98 3.48Q2.07 3.39 2.25 3.38L6.75 3.38Q6.92 3.39 7.01 3.48Q7.11 3.58 7.12 3.75Q7.11 3.93 7.01 4.02Q6.92 4.11 6.75 4.13L2.25 4.13Q2.07 4.11 1.98 4.02Q1.88 3.93 1.87 3.75Q1.88 3.58 1.98 3.48ZM1.98 5.73Q2.07 5.64 2.25 5.63L6.75 5.63Q6.92 5.64 7.01 5.73Q7.11 5.83 7.12 6Q7.11 6.18 7.01 6.27Q6.92 6.36 6.75 6.38L2.25 6.38Q2.07 6.36 1.98 6.27Q1.88 6.18 1.87 6Q1.88 5.83 1.98 5.73ZM1.98 8.52Q1.88 8.43 1.87 8.25Q1.88 8.08 1.98 7.98Q2.07 7.89 2.25 7.88L6.75 7.88Q6.92 7.89 7.01 7.98Q7.11 8.08 7.12 8.25Q7.11 8.43 7.01 8.52Q6.92 8.61 6.75 8.63L2.25 8.63Q2.07 8.61 1.98 8.52Z" fill="#053B7A" fill-opacity="1.000000" fill-rule="evenodd"/>
	</g>
</svg>
